<svg xmlns="http://www.w3.org/2000/svg" width="467.382" height="500"><g font-family="sans-serif" letter-spacing="0" word-spacing="0" fill="#333"><path style="-inkscape-font-specification:'Bebas Neue'" d="M256.287 186.03l.344 1.527h.454l-1.536-6.903h-.66l-1.506 6.903h.413l.345-1.527h2.147zm-1.084-4.855l1.015 4.46h-2.01l.995-4.46zm-3.996 6.382v-.414h-2.167v-6.48h-.453v6.894h2.62zm-5.706-1.527l.346 1.527h.453l-1.537-6.903h-.66l-1.507 6.903h.414l.344-1.527h2.147zm-1.082-4.855l1.014 4.46h-2.01l.996-4.46zm-6.79-.512v6.894h.454v-2.836h.857c1.092 0 1.594-.54 1.594-1.634v-.75c0-1.003-.414-1.673-1.477-1.673h-1.428zm.454 3.644v-3.23h.975c.768 0 1.024.483 1.024 1.23v.808c0 .837-.344 1.192-1.14 1.192h-.858zm-3.54 1.723l.345 1.527h.453l-1.536-6.903h-.66l-1.506 6.903h.413l.346-1.527h2.147zm-1.083-4.855l1.014 4.46h-2.01l.995-4.46zm-4.934 6.382v-6.48h1.4v-.414h-3.26v.414h1.407v6.48h.453zm-4.48-6.894v6.894h.454v-6.894h-.453zm-3.857-.06c-1.055 0-1.488.75-1.488 1.744v3.526c0 .994.433 1.743 1.487 1.743 1.052 0 1.486-.75 1.486-1.743v-1.87h-1.35v.412h.916v1.487c0 .74-.285 1.29-1.043 1.29-.76 0-1.045-.55-1.045-1.29v-3.584c0-.74.285-1.3 1.044-1.3.757 0 1.042.56 1.042 1.3v.54h.434v-.51c0-.995-.434-1.744-1.487-1.744zm79.904-19.476q-.05-.2-.126-.552-.3-1.054-.3-1.757 0-.83.325-1.33.352-.503 1.055-.503.477 0 .828.276.377.277.628.704.276.402.427.803.176.402.377 1.08l.025.05-3.238 1.23zm6.98 2.737q-.553.678-1.356 1.005-.78.325-1.708.325-2.26 0-3.163-2.21l7.13-2.61q-.703-2.46-2.234-3.867-1.507-1.432-3.917-1.432-1.28 0-2.436.503-1.13.5-1.983 1.405-.83.878-1.306 2.058-.45 1.18-.45 2.46 0 3.014 1.657 4.847 1.657 1.808 4.47 1.808 2.007 0 3.54-.854 1.556-.88 2.71-2.41l-.954-1.03zm-12.18 3.917v-1.505h-.877V152.09l.878-.303v-1.556l-6.327 2.11v1.456l.854-.276v12.755h-.904v1.506h6.377zM279.17 157.74h.728q.427 0 .88.15.476.126.953.603.503.453.83 1.432.326.98.326 2.56 0 2.085-.503 2.94-.502.827-1.657.827-.853 0-1.205-.553-.35-.552-.35-1.48v-6.48zm-5.474.3l.88-.225v12.353h-.88v1.507h7.106v-1.507h-1.632v-2.51q.452.276 1.104.376.653.126 1.33.126 1.357 0 2.437-.578 1.105-.602 1.86-1.607.777-1.004 1.18-2.285.4-1.28.4-2.61 0-1.306-.4-2.41-.378-1.13-1.08-1.934-.704-.804-1.658-1.23-.93-.428-2.01-.428-.777 0-1.43.302-.653.276-1.707.93l-.025.024v-1.256l-5.474 1.457v1.506zm-7.856 10.12q1.506 0 2.787-.452 1.305-.452 2.284-1.306.98-.88 1.508-2.084.527-1.23.527-2.712 0-1.48-.527-2.686-.527-1.23-1.507-2.084-.953-.854-2.258-1.306-1.306-.452-2.812-.452-1.482 0-2.787.452-1.306.452-2.26 1.306-.954.854-1.506 2.084-.528 1.205-.528 2.686 0 1.482.527 2.712.527 1.205 1.506 2.084.98.854 2.26 1.306 1.305.452 2.787.452zm-.78-11.173q.905 0 1.533.703.653.678 1.03 1.732.376 1.055.552 2.134.175 1.08.175 1.858 0 1.205-.4 2.034-.378.803-1.307.803-.88 0-1.53-.678-.654-.703-1.03-1.758-.378-1.055-.553-2.134-.176-1.08-.176-1.858 0-.527.025-.954.05-.452.2-.88.176-.426.527-.702.352-.3.954-.3zm-14.715 4.142q-.05-.2-.125-.552-.3-1.054-.3-1.757 0-.83.325-1.33.35-.503 1.054-.503.476 0 .828.276.377.277.628.704.276.402.427.803.175.402.376 1.08l.024.05-3.24 1.23zm6.98 2.737q-.552.678-1.355 1.005-.78.325-1.708.325-2.26 0-3.163-2.21l7.13-2.61q-.704-2.46-2.235-3.867-1.507-1.432-3.917-1.432-1.28 0-2.436.503-1.13.5-1.983 1.405-.83.878-1.307 2.058-.452 1.18-.452 2.46 0 3.014 1.658 4.847 1.657 1.808 4.47 1.808 2.008 0 3.54-.854 1.556-.88 2.71-2.41l-.953-1.03zm-20.37-6.126h.728q.427 0 .88.15.476.126.953.603.502.453.828 1.432.327.98.327 2.56 0 2.085-.502 2.94-.502.827-1.657.827-.852 0-1.204-.553-.35-.552-.35-1.48v-6.48zm-5.474.3l.88-.225v12.353h-.88v1.507h7.107v-1.507h-1.632v-2.51q.452.276 1.104.376.652.126 1.33.126 1.356 0 2.436-.578 1.104-.602 1.858-1.607.778-1.004 1.18-2.285.4-1.28.4-2.61 0-1.306-.4-2.41-.377-1.13-1.08-1.934-.703-.804-1.657-1.23-.93-.428-2.01-.428-.777 0-1.43.302-.653.276-1.707.93l-.025.024v-1.256l-5.474 1.457v1.506zm-13.425 6.805q0 1.683.73 2.51.752.805 2.434.805 1.104 0 2.133-.477 1.055-.502 2.185-1.33l-.653-1.08q-.628.402-1.205.402-.352 0-.703-.226-.327-.25-.327-.778v-7.257h1.858l.377-1.957h-2.235v-1.004q0-1.232.176-1.96l-1.507-.276q-.553 1.38-1.783 2.385-1.205 1.004-2.712 1.43v1.38h1.23v7.433zm-7.035-1.155q0 .854-.302 1.356-.276.477-1.08.477-.828 0-1.18-.6-.326-.604-.326-1.483 0-.954.603-1.556.602-.602 1.557-.602h.728v2.41zm.35 4.093h5.048v-1.505h-.804v-7.03q0-2.135-1.23-3.14-1.23-1.03-3.44-1.03-1.707 0-3.038.58l.226-.68-1.506-.5-1.607 4.368 1.556.577q.075-.1.175-.25.63-.83 1.18-1.256.554-.427 1.433-.427 1.657 0 1.657 1.657v.628h-3.44q-1.733 0-2.887 1.23-1.155 1.23-1.155 3.34 0 1.732 1.13 2.786 1.13 1.03 2.862 1.03 1.004 0 1.833-.402.853-.402 1.732-1.155l.276 1.18zm-16.246-6.653q-.05-.2-.126-.552-.3-1.054-.3-1.757 0-.83.325-1.33.352-.503 1.055-.503.477 0 .828.276.377.277.628.704.276.402.427.803.177.402.377 1.08l.026.05-3.24 1.23zm6.98 2.737q-.553.678-1.356 1.005-.78.325-1.707.325-2.26 0-3.163-2.21l7.13-2.61q-.702-2.46-2.234-3.867-1.507-1.432-3.917-1.432-1.28 0-2.435.503-1.13.5-1.983 1.405-.828.878-1.305 2.058-.452 1.18-.452 2.46 0 3.014 1.657 4.847 1.657 1.808 4.47 1.808 2.008 0 3.54-.854 1.556-.88 2.71-2.41l-.953-1.03zm-21.552-5.9l.804-.327v8.638h-.854v1.506h6.68v-1.505h-1.232v-6.102q.327-.527.78-.728.45-.2.877-.2.73.05 2.034.552l1.508-4.244-1.38-.477-.303.503q-.577-.278-.954-.378-.375-.126-.903-.126-.652 0-1.054.703-.402.702-.753 1.832-.126.327-.15.427h-.05v-2.964l-5.048 1.356v1.532zm-7.234-1.306q.653 0 1.155.578.527.552.854 1.43.326.855.477 1.708.176.854.176 1.43 0 .905-.302 1.307-.3.378-1.004.378-.653 0-1.18-.553-.502-.577-.83-1.43-.325-.88-.5-1.733-.15-.854-.15-1.432 0-.903.3-1.28.3-.402 1.004-.402zm.728 11.625l.076.05q.778.503 1.104.88.352.4.352 1.154 0 .93-.954.93-.502 0-.778-.403-.252-.376-.252-.903 0-1.004.452-1.707zm5.574-15.065l-.3-.025q-.428-.05-.63-.05-.978 0-1.43.3-.452.278-.678 1.006l-.3.953q-.252-.05-.58-.1-.55-.1-1.053-.15-.478-.077-1.13-.077-1.08 0-2.085.327-.98.3-1.783.93-.803.627-1.28 1.63-.452.98-.452 2.286 0 1.857 1.255 3.012 1.28 1.155 3.064 1.43v.05q-2.763 1.03-4.797 1.332l1.682 1.632q.527-.076 1.105-.076.577 0 1.908.126.2 0 .352.025v.05q-.904.102-1.683.704-.753.603-.753 1.457 0 .73.352 1.23.376.503 1.004.78.653.275 1.43.376.78.125 1.683.125.653 0 1.507-.174.88-.15 1.707-.528.83-.376 1.38-1.054.554-.678.554-1.632 0-.98-.652-1.632-.628-.678-1.607-1.03-.953-.376-1.882-.527-.93-.176-2.134-.3v-.05q.1-.027.326-.077 1.506-.402 2.486-.728.98-.326 1.883-.904.903-.577 1.43-1.506.552-.954.552-2.31t-.527-2.16q-.527-.828-1.356-1.506-.478-.402-.478-.552 0-.553.452-.553.276 0 .427.1.177.076.403.327l.075.075.552-2.562zm48.625-49.12l-7.204 14.733c-3.085 6.438-5.735 12.037-5.887 12.443-1.1 2.925-.952 7.284.34 10.036 1.94 4.138 5.598 6.33 10.626 6.368 4.656.035 8.33-1.967 10.105-5.505 1.777-3.544.545-7.864-2.58-9.044-1.682-.637-4.236-.635-5.383.003-.766.426-1.664 1.448-1.854 2.108l-.158.55-3.84-1.393c-2.11-.765-3.85-1.48-3.862-1.587-.034-.295 1.093-2.498 1.86-3.64 2.67-3.964 7.606-6.44 11.997-6.02 5.1.49 10.883 4.868 15.998 12.11.742 1.052 4.41 6.028 8.152 11.057l1.165 1.572h3.303l-32.778-43.792zm29.07-61.83c15.5-4.153 24.484-11.61 27.98-23.22 1.045-3.48 1.01-3.922-.444-5.375-2.43-2.43-7.767-2.79-20.128-1.35-15.112 1.762-46.858 1.762-61.97 0-11.92-1.387-17.885-1.063-20.31 1.106-2.046 1.83-1.86 3.204 1.337 9.868 5.264 10.973 14.58 16.87 31.82 20.142 9.155 1.738 33.4 1.057 41.714-1.17zm-39.63 5.742c-12.027-2.185-21.07-6.407-27.502-12.84-4.998-4.997-9.302-13.28-9.847-18.95-.35-3.646-.17-4.23 1.694-5.45 3.266-2.14 9.317-2.414 21.56-.972 15.13 1.78 44.845 1.77 60.74-.025 13.286-1.5 18.863-1.108 21.48 1.51 2.29 2.29 1.607 6.702-2.266 14.636-4.974 10.19-14.85 17.518-28.107 20.854-6.167 1.55-31.46 2.38-37.753 1.236zm91.003 447.17c25.552-1.352 35.696-2.934 43.77-6.822 4.67-2.248 5.428-3.762 3.953-7.902-1.797-5.046-1.804-292.895 0-303.977 1.735-10.693 4-17.543 10.086-30.52 6.078-12.955 10.52-26.84 13.144-41.083 2.006-10.887 3.293-12.76 2.153-3.133-1.316 11.113-4.047 22.693-8.452 35.84l-4.348 12.982v10.887c0 17.89 2.49 24.74 13.772 37.984 3.28 3.85 6.698 8.44 7.596 10.202.9 1.76 2.044 3.455 2.545 3.765.5.31 4.37-1.234 8.596-3.43 16.017-8.317 59.64-32.34 61.058-33.624.815-.736 1.48-1.886 1.48-2.554 0-1.332-12.937-24.7-36.277-65.52-35.14-61.462-36.375-62.807-64.226-69.942-20.66-5.292-40.655-13.358-67.822-27.358l-14.655-7.553-12.562.7c-16.485.92-54.61.905-69.927-.03l-12.142-.74L174.77 9.42c-29.163 15.176-49.68 23.383-75.245 30.096C79.86 44.68 74.05 49.756 58.69 75.196c-16.368 27.11-55.247 96.313-55.247 98.337 0 .795.848 2.216 1.885 3.157 1.592 1.446 25.84 14.85 59.477 32.88 4.5 2.414 8.726 4.18 9.387 3.926.662-.254 2.127-2.27 3.255-4.48 1.13-2.208 4.202-6.466 6.83-9.46 11.268-12.837 13.94-20.09 14.04-38.103l.06-10.887-4.3-12.562c-4.105-11.99-7.788-27.697-9.033-38.522-.975-8.48.644-4.37 3.114 7.902 3.062 15.213 6.297 25.122 12.35 37.833 6.194 13.008 8.79 21.26 10.52 33.446 1.224 8.614 1.337 24.355 1.113 154.885-.212 124.776-.42 145.675-1.462 147.977-1.098 2.422-1.072 2.837.27 4.32 5.593 6.18 23.266 8.764 69.615 10.18 27.432.837 106.177.32 128.13-.844zm-117.66 4.453c-21.124-.374-51.474-2.02-59.878-3.247-10.788-1.574-17.863-3.954-21.752-7.318-3.538-3.06-3.77-4.58-1.75-11.48 1.218-4.168 1.324-18.404 1.113-149.902-.19-119.177-.435-145.786-1.356-148.02-.617-1.496-1.393-2.72-1.723-2.72-.33 0-1.27 1.413-2.088 3.14-3.367 7.105-7.824 13.374-14.74 20.734-4.022 4.28-8.212 9.412-9.312 11.406-3.294 5.97-5.167 6.086-15.245.94-16.247-8.294-60.25-32.57-62.223-34.328-4.126-3.675-3.41-5.523 14.51-37.43 9.072-16.15 22.307-39.35 29.413-51.557 24.712-42.446 29.576-47.578 50.4-53.183 18.48-4.973 23.686-6.64 36.01-11.534 7.14-2.834 22.024-9.65 33.077-15.144L185.577 0 198.56.73c16.204.916 53.155.928 70.35.023l12.98-.683 18.424 9.225c28.386 14.21 43.54 20.255 64.494 25.72 29.437 7.676 30.212 8.546 70.152 78.7 25.44 44.687 32.425 57.608 32.425 59.986 0 4.735-1.397 5.62-51.11 32.38-11.3 6.083-21.298 11.06-22.217 11.06-2.483 0-5.216-2.232-6.99-5.708-.867-1.697-5.11-6.91-9.433-11.582-5.32-5.75-9.242-10.984-12.142-16.196l-4.285-7.7-1.136 3.216c-1.615 4.57-1.703 299.44-.09 301.054 1.553 1.552 1.27 5.227-.582 7.582-2.162 2.747-9.87 6.102-17.632 7.672-17.52 3.544-83.14 5.35-150.74 4.15z" font-size="37.5" font-family="Bebas Neue" letter-spacing="6.107"/></g></svg>